<svg width="70" height="70" viewBox="0 0 70 70" fill="none" xmlns="http://www.w3.org/2000/svg">
<path d="M35 15.7542C35 15.1822 34.7695 14.6336 34.3593 14.2292C33.9491 13.8247 33.3927 13.5975 32.8125 13.5975C32.2323 13.5975 31.6759 13.8247 31.2657 14.2292C30.8555 14.6336 30.625 15.1822 30.625 15.7542V39.4778C30.6251 39.8579 30.7272 40.2313 30.9208 40.56C31.1144 40.8888 31.3927 41.1612 31.7275 41.3498L47.04 49.9765C47.5425 50.2443 48.1313 50.3076 48.6806 50.153C49.2298 49.9984 49.6959 49.6382 49.9793 49.1492C50.2627 48.6603 50.3409 48.0814 50.1971 47.5364C50.0534 46.9914 49.6991 46.5234 49.21 46.2325L35 38.2269V15.7542Z" fill="#B02B2B"/>
<path d="M35 69.6714C44.2826 69.6714 53.185 66.0359 59.7487 59.5646C66.3125 53.0932 70 44.3162 70 35.1644C70 26.0126 66.3125 17.2356 59.7487 10.7642C53.185 4.2929 44.2826 0.657349 35 0.657349C25.7174 0.657349 16.815 4.2929 10.2513 10.7642C3.68749 17.2356 0 26.0126 0 35.1644C0 44.3162 3.68749 53.0932 10.2513 59.5646C16.815 66.0359 25.7174 69.6714 35 69.6714ZM65.625 35.1644C65.625 43.1722 62.3984 50.8521 56.6551 56.5145C50.9118 62.1769 43.1223 65.3581 35 65.3581C26.8777 65.3581 19.0882 62.1769 13.3449 56.5145C7.60155 50.8521 4.375 43.1722 4.375 35.1644C4.375 27.1565 7.60155 19.4767 13.3449 13.8142C19.0882 8.15184 26.8777 4.97073 35 4.97073C43.1223 4.97073 50.9118 8.15184 56.6551 13.8142C62.3984 19.4767 65.625 27.1565 65.625 35.1644Z" fill="#B02B2B"/>
</svg>
