<svg width="70" height="56" viewBox="0 0 70 56" fill="none" xmlns="http://www.w3.org/2000/svg">
<path d="M14.0317 55.4298C12.8307 55.432 11.6347 55.2581 10.4753 54.9125C6.99514 53.8186 4.04262 51.2649 2.25114 47.7991C0.459655 44.3334 -0.0280665 40.2317 0.89261 36.3742L6.64715 12.3098C7.0953 10.3622 7.89202 8.53298 8.99049 6.92954C10.089 5.3261 11.4671 3.98075 13.0438 2.97253C14.5791 1.99239 16.2756 1.35778 18.0349 1.10544C19.7943 0.853111 21.5816 0.988078 23.2933 1.50253C25.1129 2.05946 26.8076 3.02699 28.2702 4.34378C29.7327 5.66056 30.931 7.29789 31.7893 9.15197H38.2107C39.0652 7.29492 40.2624 5.65519 41.7254 4.3379C43.1885 3.02061 44.8852 2.05485 46.7066 1.50253C48.4183 0.988078 50.2056 0.853111 51.965 1.10544C53.7244 1.35778 55.4208 1.99239 56.9561 2.97253C58.5252 3.97817 59.8983 5.31613 60.9961 6.90931C62.094 8.50249 62.8949 10.3194 63.3528 12.2553L69.1073 36.3742C70.0418 40.243 69.5579 44.3617 67.7603 47.8405C65.9627 51.3194 62.9956 53.8792 59.5 54.967C57.7883 55.4814 56.0009 55.6164 54.2416 55.3641C52.4822 55.1117 50.7857 54.4771 49.2505 53.497C47.6788 52.4949 46.3038 51.158 45.2055 49.5643C44.1073 47.9706 43.3079 46.1519 42.8538 44.2142L42.4092 41.8186H27.5907L27.0227 44.1598C26.5686 46.0975 25.7691 47.9162 24.6709 49.5099C23.5727 51.1036 22.1977 52.4405 20.626 53.4425C18.6192 54.7183 16.3482 55.4027 14.0317 55.4298ZM19.7616 6.42975C18.2712 6.43533 16.8075 6.86678 15.5136 7.68197C13.4855 8.99349 12.0114 11.1371 11.4138 13.6436L5.65924 37.7081C5.05708 40.1873 5.36135 42.828 6.50666 45.0626C7.65197 47.2972 9.5469 48.9475 11.7842 49.6586C12.8648 49.9835 13.993 50.069 15.1037 49.9101C16.2144 49.7512 17.2855 49.3512 18.255 48.7331C19.2644 48.0908 20.1471 47.2324 20.8512 46.2086C21.5552 45.1848 22.0665 44.0162 22.3548 42.7714L23.8861 36.3742H46.1139L47.6204 42.7714C47.9139 44.0138 48.4271 45.18 49.1307 46.2031C49.8343 47.2262 50.7143 48.086 51.7202 48.7331C52.6945 49.3506 53.7697 49.7502 54.8843 49.909C55.9989 50.0678 57.131 49.9827 58.2157 49.6586C60.4557 48.9541 62.353 47.3037 63.4953 45.066C64.6375 42.8283 64.9325 40.1841 64.316 37.7081L58.5615 13.6436C58.2747 12.4018 57.7668 11.2351 57.0672 10.2116C56.3676 9.18815 55.4903 8.32825 54.4864 7.68197C53.5121 7.06448 52.4369 6.66488 51.3223 6.50606C50.2077 6.34724 49.0756 6.43232 47.9909 6.75642C46.6494 7.17789 45.4186 7.94607 44.4006 8.99714C43.3825 10.0482 42.6067 11.3518 42.1376 12.7998L41.5448 14.5964H28.4551L27.8624 12.7998C27.389 11.3499 26.6089 10.0454 25.5866 8.99435C24.5643 7.94333 23.3294 7.17614 21.9843 6.75642C21.2595 6.541 20.5123 6.43118 19.7616 6.42975Z" fill="#B02B2B"/>
<path d="M20.1815 28.2075C19.2045 28.2075 18.2495 27.8882 17.4372 27.2899C16.6249 26.6917 15.9918 25.8414 15.6179 24.8465C15.2441 23.8517 15.1463 22.757 15.3369 21.7009C15.5274 20.6448 15.9979 19.6747 16.6887 18.9132C17.3795 18.1518 18.2596 17.6333 19.2178 17.4232C20.176 17.2131 21.1692 17.321 22.0717 17.733C22.9743 18.1451 23.7458 18.8429 24.2885 19.7383C24.8313 20.6336 25.121 21.6862 25.121 22.7631C25.121 24.207 24.6006 25.5918 23.6742 26.6129C22.7479 27.6339 21.4915 28.2075 20.1815 28.2075Z" fill="#B02B2B"/>
<path d="M49.8185 20.0408C51.1825 20.0408 52.2883 18.822 52.2883 17.3186C52.2883 15.8152 51.1825 14.5964 49.8185 14.5964C48.4545 14.5964 47.3488 15.8152 47.3488 17.3186C47.3488 18.822 48.4545 20.0408 49.8185 20.0408Z" fill="#B02B2B"/>
<path d="M49.8185 30.9297C51.1825 30.9297 52.2883 29.711 52.2883 28.2075C52.2883 26.7041 51.1825 25.4853 49.8185 25.4853C48.4545 25.4853 47.3488 26.7041 47.3488 28.2075C47.3488 29.711 48.4545 30.9297 49.8185 30.9297Z" fill="#B02B2B"/>
<path d="M44.8791 25.4853C46.2431 25.4853 47.3488 24.2665 47.3488 22.7631C47.3488 21.2596 46.2431 20.0408 44.8791 20.0408C43.515 20.0408 42.4093 21.2596 42.4093 22.7631C42.4093 24.2665 43.515 25.4853 44.8791 25.4853Z" fill="#B02B2B"/>
<path d="M54.7581 25.4853C56.1221 25.4853 57.2278 24.2665 57.2278 22.7631C57.2278 21.2596 56.1221 20.0408 54.7581 20.0408C53.3941 20.0408 52.2883 21.2596 52.2883 22.7631C52.2883 24.2665 53.3941 25.4853 54.7581 25.4853Z" fill="#B02B2B"/>
</svg>
