<svg width="52" height="70" viewBox="0 0 52 70" fill="none" xmlns="http://www.w3.org/2000/svg">
<path d="M26.0014 0C12.2541 0 0.975006 11.2434 0.975006 24.9592C0.975006 30.275 2.67601 35.2261 5.54671 39.2833L5.46061 39.1496L21.7027 67.2266L21.7713 67.3162C22.4111 68.152 23.0362 68.8107 23.7698 69.2958C24.5041 69.7816 25.4148 70.0728 26.3073 69.9839C28.0944 69.8047 29.1892 68.5433 30.2273 67.1356L30.2819 67.0621L48.1907 36.5834L48.2019 36.5624C48.6219 35.8036 48.9313 35.0315 49.1945 34.2797C50.4027 31.3208 51.0244 28.1553 51.025 24.9592C51.025 11.2434 39.748 0 26.0014 0ZM26.0014 3.5C37.8419 3.5 47.525 13.16 47.525 24.9592C47.525 27.7991 46.9608 30.5081 45.9416 32.9973L45.9227 33.0407L45.9073 33.0848C45.6805 33.7372 45.4327 34.3378 45.1394 34.8684L27.3825 65.086C26.5621 66.178 25.9636 66.5007 25.9587 66.5014C25.9566 66.5014 25.9475 66.5392 25.7018 66.3768C25.4652 66.2207 25.0613 65.835 24.5902 65.2302L8.44961 37.3268L8.40411 37.2624C5.93101 33.7666 4.47501 29.5295 4.47501 24.9592C4.47501 13.1607 14.1609 3.5 26.0014 3.5ZM26.0014 10.8759C18.1866 10.8759 11.881 17.1591 11.881 24.9599C11.881 32.7593 18.1873 39.0425 26.0014 39.0425C33.8155 39.0425 40.119 32.76 40.119 24.9592C40.119 17.1598 33.8162 10.8759 26.0014 10.8759ZM26.0014 14.3759C31.9654 14.3759 36.619 19.0204 36.619 24.9599C36.619 30.898 31.9654 35.5425 26.0014 35.5425C20.0374 35.5425 15.381 30.898 15.381 24.9592C15.381 19.0211 20.0381 14.3759 26.0014 14.3759Z" fill="#B02B2B"/>
</svg>
