<svg width="46" height="48" viewBox="0 0 46 48" fill="none" xmlns="http://www.w3.org/2000/svg">
<path fill-rule="evenodd" clip-rule="evenodd" d="M31.8813 6.95937L31.9156 6.925L35.3188 10.3281V2.59375L33.6 0.875H2.6625L0.909375 2.59375V4.28844L0.875 4.3125V39.6844L2.1125 41.2656L19.3 47.1781L21.5 45.5625V42.125H33.6L35.3188 40.4062V32.6719L31.8813 36.1094V38.6875H21.5V10.1906L20.3656 8.60938L7.87375 4.3125H31.8813V6.95937ZM18.0625 43.0875L4.3125 38.4812V6.7875L18.0625 11.3937V43.0875V43.0875ZM28.6844 19.8844H45.7688V23.3219H28.8219L34.2875 28.8219L31.8469 31.2281L23.3563 22.7719V20.3312L31.9156 11.8062L34.3219 14.2125L28.6844 19.8844V19.8844Z" fill="white"/>
</svg>
