<svg width="70" height="70" viewBox="0 0 70 70" fill="none" xmlns="http://www.w3.org/2000/svg">
<path d="M16.747 6.38551C16.4923 6.05795 16.1709 5.78833 15.8041 5.59454C15.4372 5.40075 15.0334 5.28724 14.6193 5.26154C14.2052 5.23583 13.7904 5.29853 13.4024 5.44547C13.0144 5.5924 12.6621 5.82021 12.3689 6.11376L7.90888 10.5781C5.82552 12.6658 5.05774 15.6205 5.96786 18.2128C9.74525 28.9427 15.8899 38.6845 23.946 46.7156C31.9772 54.7716 41.7189 60.9162 52.4488 64.6938C55.0411 65.6039 57.9958 64.8361 60.0834 62.7528L64.5435 58.2927C64.837 57.9995 65.0648 57.6473 65.2118 57.2593C65.3587 56.8713 65.4214 56.4564 65.3957 56.0424C65.37 55.6283 65.2565 55.2244 65.0627 54.8575C64.8689 54.4907 64.5993 54.1693 64.2717 53.9146L54.3208 46.1764C53.9708 45.905 53.5638 45.7166 53.1304 45.6255C52.6971 45.5343 52.2486 45.5428 51.819 45.6502L42.3727 48.0096C41.1118 48.3248 39.7908 48.308 38.5383 47.9611C37.2858 47.6141 36.1445 46.9488 35.2255 46.0298L24.6318 35.4318C23.7121 34.5132 23.0459 33.3721 22.6982 32.1196C22.3505 30.867 22.3331 29.5458 22.6477 28.2845L25.0114 18.8382C25.1188 18.4086 25.1273 17.9602 25.0361 17.5268C24.945 17.0934 24.7566 16.6864 24.4852 16.3365L16.747 6.38551ZM9.11231 2.86148C9.86713 2.10642 10.7739 1.52058 11.7725 1.14286C12.7711 0.76514 13.8387 0.604184 14.9042 0.670681C15.9698 0.737177 17.009 1.0296 17.9529 1.52854C18.8968 2.02748 19.7237 2.72151 20.3788 3.56456L28.117 13.5112C29.5361 15.3358 30.0365 17.7124 29.4757 19.9554L27.1163 29.4017C26.9943 29.891 27.0009 30.4035 27.1355 30.8894C27.27 31.3754 27.5279 31.8183 27.8841 32.1752L38.4821 42.7732C38.8394 43.1301 39.283 43.3885 39.7698 43.523C40.2566 43.6576 40.77 43.6637 41.2599 43.541L50.7018 41.1815C51.8087 40.9048 52.964 40.8833 54.0804 41.1187C55.1968 41.3541 56.2451 41.8402 57.146 42.5403L67.0927 50.2785C70.6684 53.0606 70.9963 58.3445 67.7957 61.5407L63.3357 66.0007C60.1438 69.1926 55.3732 70.5945 50.9261 69.0287C39.5439 65.0239 29.2095 58.5077 20.6894 49.9636C12.1459 41.4447 5.62973 31.1118 1.6243 19.7311C0.0628564 15.2883 1.4647 10.5134 4.6566 7.32151L9.11662 2.86148H9.11231Z" fill="#B02B2B"/>
</svg>
